<svg width="128" height="128" viewBox="0 0 128 128" fill="none" xmlns="http://www.w3.org/2000/svg">
<rect width="128" height="128" fill="#E4E6E7"/>
<path d="M101.125 26.875H26.875C25.0848 26.875 23.3679 27.5862 22.102 28.852C20.8362 30.1179 20.125 31.8348 20.125 33.625V94.375C20.125 96.1652 20.8362 97.8821 22.102 99.148C23.3679 100.414 25.0848 101.125 26.875 101.125H101.125C102.915 101.125 104.632 100.414 105.898 99.148C107.164 97.8821 107.875 96.1652 107.875 94.375V33.625C107.875 31.8348 107.164 30.1179 105.898 28.852C104.632 27.5862 102.915 26.875 101.125 26.875ZM75.8125 47.125C76.8138 47.125 77.7925 47.4219 78.6251 47.9782C79.4576 48.5345 80.1065 49.3251 80.4896 50.2502C80.8728 51.1752 80.9731 52.1931 80.7777 53.1751C80.5824 54.1572 80.1002 55.0592 79.3922 55.7672C78.6842 56.4752 77.7822 56.9574 76.8001 57.1527C75.8181 57.3481 74.8002 57.2478 73.8752 56.8646C72.9501 56.4815 72.1595 55.8326 71.6032 55.0001C71.0469 54.1675 70.75 53.1888 70.75 52.1875C70.75 50.8448 71.2834 49.5572 72.2328 48.6078C73.1822 47.6584 74.4698 47.125 75.8125 47.125ZM26.875 94.375V82.5625L48.8125 60.625L82.5625 94.375H26.875ZM101.125 94.375H92.1095L76.922 79.1875L85.3595 70.75L101.125 86.5197V94.375Z" fill="#AEB4B7"/>
</svg>
