<svg width="128" height="128" viewBox="0 0 128 128" fill="none" xmlns="http://www.w3.org/2000/svg">
<g clip-path="url(#clip0_326_2352)">
<rect width="128" height="128" fill="#E4E6E7"/>
<path d="M78.592 78.112C89.382 81.2666 98.8591 87.8329 105.603 96.8269C112.347 105.821 115.995 116.758 116 128H12C12.0023 116.758 15.6491 105.819 22.3936 96.8245C29.1381 87.83 38.6167 81.2643 49.408 78.112L64 100L78.592 78.112ZM90 50C90 56.8956 87.2607 63.5088 82.3848 68.3848C77.5088 73.2607 70.8956 76 64 76C57.1044 76 50.4912 73.2607 45.6152 68.3848C40.7393 63.5088 38 56.8956 38 50C38 43.1044 40.7393 36.4912 45.6152 31.6152C50.4912 26.7393 57.1044 24 64 24C70.8956 24 77.5088 26.7393 82.3848 31.6152C87.2607 36.4912 90 43.1044 90 50Z" fill="#AEB4B7"/>
</g>
<defs>
<clipPath id="clip0_326_2352">
<rect width="128" height="128" fill="white"/>
</clipPath>
</defs>
</svg>
