<svg width="79" height="18" viewBox="0 0 79 18" fill="none" xmlns="http://www.w3.org/2000/svg">
  <title>
    Ressourcerie
  </title>
  <path
    d="M19.0156 15.0547C18.9948 15.1276 18.9349 15.2161 18.8359 15.3203C18.7422 15.4245 18.6875 15.5078 18.6719 15.5703L18.7969 15.8516L18.6719 16.0703C18.5208 16.1745 18.2734 16.2656 17.9297 16.3438C17.4141 16.4583 17.1484 16.5182 17.1328 16.5234C16.8516 16.4922 16.7005 16.4766 16.6797 16.4766C16.3411 16.4766 16.0547 16.513 15.8203 16.5859L15.5859 16.5234L15.3047 16.3047L15.0234 16.2422L14.7422 15.8984L14.6094 15.8516C14.4948 15.6589 14.2865 15.5078 13.9844 15.3984L13.7031 15.1016L13.4844 15.0547C13.4167 15.0651 13.3385 15.0807 13.25 15.1016C13.0885 15.2005 12.8438 15.3359 12.5156 15.5078C12.3698 15.5495 12.1615 15.6224 11.8906 15.7266C11.5729 15.8776 11.3568 16.0339 11.2422 16.1953L10.7422 16.3672L10.5078 16.5859C10.3255 16.5807 9.86719 16.7161 9.13281 16.9922C8.99219 17.0443 8.66927 17.0807 8.16406 17.1016C7.72135 17.1224 7.41667 17.1953 7.25 17.3203L6.90625 17.2734L6.625 17.4453C6.46875 17.4505 6.22656 17.4844 5.89844 17.5469C5.57031 17.6146 5.32812 17.6484 5.17188 17.6484C4.65625 17.6484 4.07552 17.5807 3.42969 17.4453C3.36719 17.4349 3.21615 17.2839 2.97656 16.9922L2.80469 16.9297L2.57031 16.4141L2.52344 16.3672L2.82031 15.6953C2.92969 15.5651 3.10156 15.4349 3.33594 15.3047C3.59115 15.1641 3.80208 15.0938 3.96875 15.0938C4 15.0938 4.02865 15.0964 4.05469 15.1016L4.28906 14.9297C4.38802 14.9453 4.51302 14.9349 4.66406 14.8984C4.85156 14.8516 4.97396 14.8255 5.03125 14.8203C5.03125 14.8203 5.28125 14.8203 5.78125 14.8203C5.86458 14.8984 6.00781 14.9792 6.21094 15.0625C6.46615 15.1719 6.61979 15.2422 6.67188 15.2734C6.72917 15.3099 6.94271 15.4453 7.3125 15.6797L7.70312 15.7266L7.82812 15.8516H7.9375L8 16.0234L7.82812 16.2422H7.20312C6.98958 16.1745 6.67188 16.0651 6.25 15.9141C6.10938 15.8516 5.89062 15.763 5.59375 15.6484C5.42188 15.612 5.17448 15.5286 4.85156 15.3984C4.61198 15.4036 4.35417 15.4583 4.07812 15.5625C3.73958 15.6927 3.5026 15.7682 3.36719 15.7891L3.08594 16.2422V16.3672L3.60156 17.0391C3.66927 17.0286 3.84635 17.0495 4.13281 17.1016C4.44531 17.1536 4.64844 17.1797 4.74219 17.1797C5.02865 17.1797 5.50521 17.1172 6.17188 16.9922C6.27083 16.9609 6.42188 16.9193 6.625 16.8672C6.82292 16.8672 7.10938 16.8516 7.48438 16.8203C7.50521 16.8151 7.61979 16.7839 7.82812 16.7266C7.96875 16.6849 8.08594 16.6745 8.17969 16.6953L8.50781 16.5234L8.74219 16.5859C9.11719 16.487 9.4375 16.3464 9.70312 16.1641C9.97917 15.9609 10.2526 15.7578 10.5234 15.5547C10.7109 15.4714 10.9922 15.3411 11.3672 15.1641C11.6432 14.9922 12.1302 14.7396 12.8281 14.4062L12.3906 13.9531L12.2812 13.9062C12.2188 13.7812 12.1406 13.6875 12.0469 13.625L11.7969 13.1094C11.6562 12.9844 11.487 12.8698 11.2891 12.7656C10.9714 12.276 10.7422 11.8229 10.6016 11.4062L10.3672 11.3359V11.2891L10.2578 11.1641L10.1953 10.9922H10.1484C10.0026 10.8464 9.89323 10.5911 9.82031 10.2266C9.67969 10.0859 9.43229 9.69531 9.07812 9.05469C8.74479 8.45052 8.54948 8.13281 8.49219 8.10156L8.25781 8.14844L8.14062 8.32031H7.57812L7.0625 8.55469C6.97917 8.60677 6.90104 8.72135 6.82812 8.89844H6.65625V8.94531H6.60938L6.48438 9.11719L6.4375 9.57031L6.375 9.69531L6.4375 9.80469L6.375 9.91406C6.38542 10.0495 6.34896 10.2995 6.26562 10.6641H6.20312L6.15625 10.7734V10.8828L6.09375 10.9453L6.03125 11.1172L5.85938 11.2891L5.75 11.5781C5.58333 11.75 5.31771 11.9948 4.95312 12.3125C4.75521 12.4219 4.46615 12.5938 4.08594 12.8281H3.91406L3.69531 13H2.83594C2.78906 13 2.67188 12.974 2.48438 12.9219C2.29688 12.8646 2.16927 12.8333 2.10156 12.8281L1.92969 12.7188L1.88281 12.625C1.71094 12.625 1.53125 12.5781 1.34375 12.4844L0.890625 11.9688C0.802083 11.7917 0.739583 11.5703 0.703125 11.3047C0.71875 11.0911 0.838542 10.8203 1.0625 10.4922C1.43229 10.237 1.65365 10.0391 1.72656 9.89844L2.14844 9.85156C2.29427 9.65885 2.39323 9.54948 2.44531 9.52344H2.66406L2.85156 9.61719L3.11719 10.0234V10.6016L2.96094 10.8203L2.63281 10.6797L2.44531 10.3672L2.21094 10.2578C1.82031 10.4401 1.51562 10.7422 1.29688 11.1641L1.23438 11.5156L1.51562 11.9688C2.01562 12.2812 2.4401 12.4375 2.78906 12.4375C3.15365 12.4375 3.4349 12.3594 3.63281 12.2031C3.76823 12.0208 3.97656 11.7552 4.25781 11.4062C4.27344 11.3281 4.34635 11.1016 4.47656 10.7266C4.60677 10.3516 4.6849 10.138 4.71094 10.0859L4.83594 10.0234L4.96875 9.52344C5.17188 9.27344 5.35938 9.00781 5.53125 8.72656L5.6875 8.66406L5.64062 8.25781L5.85938 8.10156C5.97917 7.59115 6.14062 7.01562 6.34375 6.375L6.48438 6.26562L6.5625 6.03125L6.70312 5.9375L6.65625 5.75C6.73958 5.64583 6.80469 5.5026 6.85156 5.32031C6.89844 5.17448 6.94271 5.02604 6.98438 4.875C7.11979 4.49479 7.3125 4.03385 7.5625 3.49219L7.29688 3.41406C6.82812 3.46094 6.23958 3.66927 5.53125 4.03906C5.42188 4.11719 5.22917 4.21094 4.95312 4.32031L4.83594 4.49219C4.78385 4.52344 4.70573 4.5599 4.60156 4.60156H4.55469C4.30469 4.9349 4.09115 5.14583 3.91406 5.23438V5.29688L3.75781 5.35938L3.80469 5.46875L3.66406 5.53125L3.32031 6.03125H3.28906C3.21094 6.10938 3.13802 6.30208 3.07031 6.60938L3.10156 6.875L3.38281 6.9375L3.80469 6.82812C3.9349 6.75 4.08594 6.61979 4.25781 6.4375C4.44531 6.23438 4.58594 6.09896 4.67969 6.03125L4.77344 5.75L4.92188 5.625C4.92188 5.61979 5.01042 5.46615 5.1875 5.16406C5.29688 4.97656 5.35417 4.8099 5.35938 4.66406L5.53125 4.49219H5.73438L5.875 4.75781L5.90625 5.14062L5.75 5.65625C5.49479 5.80208 5.30208 5.98958 5.17188 6.21875L4.88281 6.375L4.82031 6.59375C4.66406 6.66146 4.53906 6.77083 4.44531 6.92188L4.21094 6.95312L4.17969 7.07812L4.02344 7.25C3.8151 7.35417 3.61719 7.40625 3.42969 7.40625C3.25781 7.40625 3.10156 7.39062 2.96094 7.35938C2.69531 7.16146 2.53906 6.83333 2.49219 6.375H2.44531C2.44531 6.18229 2.49219 5.97396 2.58594 5.75C2.73698 5.61458 2.95573 5.40104 3.24219 5.10938C3.38281 5.0625 3.6849 4.83594 4.14844 4.42969H4.21094L4.32031 4.21094C4.42969 4.10677 4.54688 4.02865 4.67188 3.97656C4.875 3.89323 4.98438 3.84635 5 3.83594C5.15625 3.72135 5.39583 3.5599 5.71875 3.35156C5.85938 3.27344 6.21615 3.1849 6.78906 3.08594C7.34635 2.98698 7.70312 2.94531 7.85938 2.96094L8.21094 2.78906L8.41406 2.38281C8.72656 2.07031 8.98698 1.89844 9.19531 1.86719L9.42969 1.63281C9.59635 1.57031 9.85156 1.47396 10.1953 1.34375C10.3203 1.27604 10.513 1.1875 10.7734 1.07812C10.8932 1.06771 11.0755 1.01042 11.3203 0.90625C11.4766 0.921875 11.6354 0.880208 11.7969 0.78125H12.2031L12.3125 0.84375C12.375 0.942708 12.3958 1.07292 12.375 1.23438L12.2031 1.34375H11.9688L11.75 1.58594C11.3646 1.60156 11.0286 1.6901 10.7422 1.85156L10.3984 1.83594L9.88281 2.00781C9.77865 2.07552 9.6276 2.1849 9.42969 2.33594C9.32031 2.45052 9.15885 2.61719 8.94531 2.83594L8.89844 3.00781C9.39844 3.04948 9.77344 3.08594 10.0234 3.11719C10.112 3.20573 10.3047 3.30469 10.6016 3.41406L10.7734 3.63281L10.9453 3.69531C11.0078 3.76823 11.0755 3.88542 11.1484 4.04688C11.2214 4.22917 11.2474 4.35677 11.2266 4.42969L11.2891 4.49219C11.362 4.77865 11.3984 5.13542 11.3984 5.5625C11.3984 5.85417 11.2474 6.18229 10.9453 6.54688L10.7734 6.60938L10.7109 6.71875V6.78125C10.6901 6.8125 10.4453 6.98438 9.97656 7.29688L9.74219 7.34375L10.0234 7.51562C10.263 7.77083 10.4349 8.03906 10.5391 8.32031L10.4297 8.49219L10.4922 8.77344C10.6484 8.88802 10.7578 8.98698 10.8203 9.07031H10.8828L11.1641 9.28906L11.3984 9.86719L11.5625 10.0391L11.5781 10.3203C11.6719 10.4766 11.7917 10.7109 11.9375 11.0234C12.0312 11.0859 12.1562 11.1901 12.3125 11.3359L12.375 11.6406L12.7188 12.0312C12.7552 12.1771 12.9323 12.5 13.25 13C13.3542 13.1875 13.4583 13.375 13.5625 13.5625C13.7135 13.8177 13.8542 13.9688 13.9844 14.0156V14.0781H14.1094V14.125H14.2812L14.6719 13.9531H15.0234C15.0443 13.9323 15.0807 13.9167 15.1328 13.9062C15.2526 13.901 15.4245 13.8854 15.6484 13.8594C15.7057 13.849 15.8333 13.8099 16.0312 13.7422C16.1927 13.6849 16.3307 13.6562 16.4453 13.6562C17.362 13.6562 18.0104 13.7969 18.3906 14.0781C18.526 14.1979 18.7344 14.3698 19.0156 14.5938V15.0547ZM10.2734 5.98438L10.1484 5.46875L10.1797 5.5625L10.2422 5.25L10.1328 4.95312C10.1432 4.81771 10.1198 4.63542 10.0625 4.40625C10.0104 4.17188 9.98698 3.9974 9.99219 3.88281C9.72656 3.61719 9.32031 3.50781 8.77344 3.55469C8.79948 3.76823 8.74219 4.04427 8.60156 4.38281L8.38281 4.60156V4.77344H8.32031L8.21094 5.125L8.09375 5.23438V5.40625L7.79688 5.6875L7.57812 6.82812L7.89062 6.65625H8.22656L8.41406 6.78125H8.78906L9.11719 7.0625L9.52344 7.04688C9.63281 6.78646 9.82552 6.58854 10.1016 6.45312L10.2734 5.98438ZM18.4688 14.8516L18.3906 14.5938C17.6771 14.2604 17.0755 14.0938 16.5859 14.0938C16.4818 14.0938 16.3333 14.1276 16.1406 14.1953C15.9219 14.2734 15.7708 14.3151 15.6875 14.3203C15.6042 14.3255 15.4766 14.3385 15.3047 14.3594C14.9036 14.4427 14.6719 14.4792 14.6094 14.4688L14.5625 14.5312V14.6484L14.7891 14.9297L14.9141 14.9922C15.0391 15.3828 15.1901 15.6432 15.3672 15.7734C15.8047 16.0026 16.3359 16.1432 16.9609 16.1953C17.2266 16.1432 17.4557 16.0443 17.6484 15.8984L17.6953 15.6172L17.7578 15.5703H17.8203L17.8672 15.4453L18.4531 15.0547L18.4688 14.8516ZM8.49219 7.75V7.625L8.38281 7.51562L8.30469 7.32812C8.16406 7.26562 8.05729 7.19271 7.98438 7.10938C7.8125 7.17708 7.65104 7.21875 7.5 7.23438C7.32292 7.41146 7.23438 7.59896 7.23438 7.79688V8.10156C7.5625 7.9401 7.86458 7.875 8.14062 7.90625L8.38281 7.75H8.49219ZM18.5859 9.77344L18.5234 9.83594L18.5078 10.0078L18.5703 10.1641L18.5078 10.3516L18.5391 10.5859C18.4089 10.8672 18.2786 11.0547 18.1484 11.1484C18.138 11.1484 18.099 11.1562 18.0312 11.1719C17.9635 11.1875 17.9245 11.1953 17.9141 11.1953C17.9036 11.1953 17.7891 11.1797 17.5703 11.1484L17.4609 11.0859C17.3359 11.1016 17.0547 11.0703 16.6172 10.9922C16.1849 10.9089 15.8932 10.8359 15.7422 10.7734L15.5469 10.8672C15.5312 10.8932 15.4792 11.0312 15.3906 11.2812C15.3073 11.5312 15.2656 11.6667 15.2656 11.6875C15.2656 11.7344 15.2682 11.8021 15.2734 11.8906C15.2786 11.9792 15.2812 12.0469 15.2812 12.0938L15.5156 12.5781C15.6615 12.6302 15.7474 12.6562 15.7734 12.6562C15.7891 12.6562 15.8047 12.6536 15.8203 12.6484C15.8359 12.6432 15.8516 12.6406 15.8672 12.6406L16.3359 12.6875C16.4557 12.6562 16.5911 12.5938 16.7422 12.5C16.9297 12.3802 17.0547 12.3073 17.1172 12.2812L17.2266 12.2656C17.3464 12.1771 17.4401 12.0677 17.5078 11.9375L17.8359 11.8438L17.8984 12.0156C17.8724 12.1458 17.6016 12.4688 17.0859 12.9844C16.9141 13.0677 16.6719 13.1224 16.3594 13.1484C16.0156 13.1745 15.7734 13.2135 15.6328 13.2656L15.2812 13.2031L15.2344 13.1562L14.9531 13.0938C14.6875 12.9167 14.4375 12.6146 14.2031 12.1875C14.1927 12.0625 14.1667 11.9115 14.125 11.7344C14.151 11.6406 14.1875 11.4453 14.2344 11.1484L14.2969 11.0859L14.2656 11.0391L14.375 10.9297L14.4375 10.6953C14.526 10.638 14.599 10.5234 14.6562 10.3516V9.83594L14.7812 9.78906L14.8906 9.38281C15.2708 8.9401 15.6745 8.65365 16.1016 8.52344C16.1276 8.52344 16.1667 8.52604 16.2188 8.53125C16.2708 8.53646 16.3099 8.53906 16.3359 8.53906C16.487 8.4974 16.5599 8.47656 16.5547 8.47656L16.7422 8.55469C16.8047 8.54427 16.8932 8.51823 17.0078 8.47656C17.0859 8.48177 17.2005 8.51042 17.3516 8.5625C17.5026 8.61458 17.6172 8.64323 17.6953 8.64844L17.8516 8.82031L18.0078 8.88281L18.0859 8.99219L18.3047 9.08594L18.4297 9.22656C18.4557 9.28385 18.4818 9.375 18.5078 9.5C18.5339 9.625 18.5599 9.71615 18.5859 9.77344ZM17.6953 9.96094L17.6328 9.89844C17.6328 9.71094 17.6276 9.57031 17.6172 9.47656C17.5547 9.35156 17.3568 9.15885 17.0234 8.89844C16.8255 8.89844 16.5703 8.96094 16.2578 9.08594L16.1797 9.21094L16.0391 9.30469L15.9766 9.44531L15.9297 9.49219V9.61719L15.8359 9.69531C15.8047 9.75781 15.7786 9.86198 15.7578 10.0078H15.6953L15.6797 10.1484L15.7266 10.3359C16.0495 10.5026 16.6276 10.6068 17.4609 10.6484C17.5026 10.487 17.5599 10.388 17.6328 10.3516L17.6953 9.96094ZM24.0625 9.47656L24.0156 9.63281L23.875 9.82031L23.6016 9.78906L23.4609 9.64844L23.3828 9.41406L23.4297 9.10156L23.2578 8.92969C23.1797 8.8776 22.987 8.85156 22.6797 8.85156C22.6276 8.85156 22.5599 8.86198 22.4766 8.88281C22.3724 8.96615 22.2891 9.02344 22.2266 9.05469L22.1172 9.24219C22.1589 9.38802 22.1797 9.51302 22.1797 9.61719L22.2578 9.75781C22.4661 9.88802 22.6693 10.0911 22.8672 10.3672C23.0807 10.6745 23.1849 10.9349 23.1797 11.1484L23.0859 11.375L22.9453 11.4844L22.9141 11.6562C22.7839 11.75 22.7057 11.9062 22.6797 12.125L22.4922 12.2344L22.4297 12.3906C22.3776 12.4271 22.3047 12.4896 22.2109 12.5781L21.9922 12.5469C21.8359 12.599 21.6641 12.7188 21.4766 12.9062C21.2786 12.9427 21.112 13.0208 20.9766 13.1406C20.7474 13.1615 20.5703 13.1719 20.4453 13.1719C20.5026 13.1719 20.3854 13.1458 20.0938 13.0938C19.8906 13.0573 19.7552 13.026 19.6875 13C19.5885 12.9688 19.4583 12.901 19.2969 12.7969C19.1875 12.6354 19.0573 12.4896 18.9062 12.3594C18.8646 12.2552 18.8438 12.099 18.8438 11.8906C18.8958 11.6719 18.9323 11.5417 18.9531 11.5L19.0781 11.3516L19.1406 11.1016H19.2031L19.2344 10.8672L19.4688 10.6953H19.6406C19.6615 10.6953 19.75 10.7109 19.9062 10.7422C20.151 10.8411 20.3177 11.0573 20.4062 11.3906L20.375 11.5781L20.4297 11.7969L20.375 12.0156L20.1719 12.2969H20L19.875 12.0625L19.8438 11.8281L19.7344 11.6875H19.5781L19.4219 11.7812C19.3646 11.974 19.3438 12.1562 19.3594 12.3281L19.625 12.5781C19.9531 12.6719 20.2031 12.7188 20.375 12.7188C20.4219 12.7188 20.4896 12.7161 20.5781 12.7109C20.6667 12.7057 20.7318 12.7031 20.7734 12.7031C20.8672 12.6667 20.9766 12.5807 21.1016 12.4453C21.2318 12.3099 21.3411 12.224 21.4297 12.1875C21.4401 12.1562 21.4818 12.0677 21.5547 11.9219L21.5391 11.7344L21.6797 11.6094L21.6016 11.4375L21.6484 11.3047L21.5391 11.2109L21.3047 11.1484C21.2734 11.1016 21.2266 11.026 21.1641 10.9219C21.1016 10.8177 21.0547 10.7422 21.0234 10.6953H20.9609L20.9141 10.6484C20.8411 10.4193 20.7734 10.2266 20.7109 10.0703C20.7109 9.96094 20.7266 9.85156 20.7578 9.74219C20.8411 9.64323 20.9349 9.5026 21.0391 9.32031L21.0547 9.10156L21.1953 8.99219L21.2422 8.82031H21.3047L21.4141 8.71094C21.5443 8.6849 21.737 8.61719 21.9922 8.50781C22.3047 8.45573 22.4974 8.42969 22.5703 8.42969C22.7161 8.42969 22.9245 8.45052 23.1953 8.49219C23.2943 8.54948 23.4453 8.6276 23.6484 8.72656C23.7526 8.83594 23.875 8.98177 24.0156 9.16406L24.0625 9.47656ZM29.1094 9.47656L29.0625 9.63281L28.9219 9.82031L28.6484 9.78906L28.5078 9.64844L28.4297 9.41406L28.4766 9.10156L28.3047 8.92969C28.2266 8.8776 28.0339 8.85156 27.7266 8.85156C27.6745 8.85156 27.6068 8.86198 27.5234 8.88281C27.4193 8.96615 27.3359 9.02344 27.2734 9.05469L27.1641 9.24219C27.2057 9.38802 27.2266 9.51302 27.2266 9.61719L27.3047 9.75781C27.513 9.88802 27.7161 10.0911 27.9141 10.3672C28.1276 10.6745 28.2318 10.9349 28.2266 11.1484L28.1328 11.375L27.9922 11.4844L27.9609 11.6562C27.8307 11.75 27.7526 11.9062 27.7266 12.125L27.5391 12.2344L27.4766 12.3906C27.4245 12.4271 27.3516 12.4896 27.2578 12.5781L27.0391 12.5469C26.8828 12.599 26.7109 12.7188 26.5234 12.9062C26.3255 12.9427 26.1589 13.0208 26.0234 13.1406C25.7943 13.1615 25.6172 13.1719 25.4922 13.1719C25.5495 13.1719 25.4323 13.1458 25.1406 13.0938C24.9375 13.0573 24.8021 13.026 24.7344 13C24.6354 12.9688 24.5052 12.901 24.3438 12.7969C24.2344 12.6354 24.1042 12.4896 23.9531 12.3594C23.9115 12.2552 23.8906 12.099 23.8906 11.8906C23.9427 11.6719 23.9792 11.5417 24 11.5L24.125 11.3516L24.1875 11.1016H24.25L24.2812 10.8672L24.5156 10.6953H24.6875C24.7083 10.6953 24.7969 10.7109 24.9531 10.7422C25.1979 10.8411 25.3646 11.0573 25.4531 11.3906L25.4219 11.5781L25.4766 11.7969L25.4219 12.0156L25.2188 12.2969H25.0469L24.9219 12.0625L24.8906 11.8281L24.7812 11.6875H24.625L24.4688 11.7812C24.4115 11.974 24.3906 12.1562 24.4062 12.3281L24.6719 12.5781C25 12.6719 25.25 12.7188 25.4219 12.7188C25.4688 12.7188 25.5365 12.7161 25.625 12.7109C25.7135 12.7057 25.7786 12.7031 25.8203 12.7031C25.9141 12.6667 26.0234 12.5807 26.1484 12.4453C26.2786 12.3099 26.388 12.224 26.4766 12.1875C26.487 12.1562 26.5286 12.0677 26.6016 11.9219L26.5859 11.7344L26.7266 11.6094L26.6484 11.4375L26.6953 11.3047L26.5859 11.2109L26.3516 11.1484C26.3203 11.1016 26.2734 11.026 26.2109 10.9219C26.1484 10.8177 26.1016 10.7422 26.0703 10.6953H26.0078L25.9609 10.6484C25.888 10.4193 25.8203 10.2266 25.7578 10.0703C25.7578 9.96094 25.7734 9.85156 25.8047 9.74219C25.888 9.64323 25.9818 9.5026 26.0859 9.32031L26.1016 9.10156L26.2422 8.99219L26.2891 8.82031H26.3516L26.4609 8.71094C26.5911 8.6849 26.7839 8.61719 27.0391 8.50781C27.3516 8.45573 27.5443 8.42969 27.6172 8.42969C27.763 8.42969 27.9714 8.45052 28.2422 8.49219C28.3411 8.54948 28.4922 8.6276 28.6953 8.72656C28.7995 8.83594 28.9219 8.98177 29.0625 9.16406L29.1094 9.47656ZM33.8438 10.5078L33.7734 10.9297H33.7266V11.0391L33.6172 11.1641V11.2109L33.4453 11.3359L33.2734 11.625L33.1016 11.7344L33.1641 11.8281C33.1016 11.9531 33.0391 12.0469 32.9766 12.1094L32.9453 12.2656C32.8568 12.3177 32.7422 12.4323 32.6016 12.6094C32.4453 12.7969 32.3255 12.9219 32.2422 12.9844C32.1172 12.9688 31.987 12.9896 31.8516 13.0469C31.7161 13.0052 31.5078 12.9844 31.2266 12.9844C31.0807 13.0156 30.987 13.0417 30.9453 13.0625L30.6484 12.9844C30.4661 12.8229 30.3073 12.724 30.1719 12.6875C30.0885 12.6146 29.9792 12.4896 29.8438 12.3125C29.8229 12.2292 29.8021 12.0833 29.7812 11.875C29.6979 11.776 29.6042 11.6146 29.5 11.3906C29.2917 11.2188 29.1875 10.9349 29.1875 10.5391L29.3438 10.1328C29.4479 10.0286 29.5938 9.92969 29.7812 9.83594C29.8333 9.76302 29.875 9.6901 29.9062 9.61719L30.1875 9.44531L30.4688 9.05469L30.7578 8.94531H30.9297L31.1641 8.71094L31.4453 8.64844L31.5547 8.71094C31.6016 8.77344 31.6432 8.90885 31.6797 9.11719H31.7891L31.8516 9.05469L32.1328 8.94531L32.2422 8.82031H32.5234L32.7578 8.94531L32.8672 9.33594L33.1484 9.44531H33.2109C33.2734 9.53906 33.3672 9.61719 33.4922 9.67969C33.5964 9.85156 33.7135 10.1276 33.8438 10.5078ZM33.3828 10.3672L33.2734 10.0703V10.0234L33.1484 9.91406L33.1016 9.78906L32.8672 9.67969L32.6953 9.78906C32.6589 9.89844 32.6016 9.99219 32.5234 10.0703C32.5339 10.1068 32.5182 10.1849 32.4766 10.3047L32.3516 10.3672V10.4141L32.1797 10.5391L31.8984 10.3672L31.8516 10.3047V9.85156L31.7266 9.57031V9.50781L31.6172 9.44531V9.39844L31.5078 9.33594L31.2734 9.39844L31.1953 9.53906L30.9297 9.67969H30.8828C30.8568 9.77344 30.7578 9.88802 30.5859 10.0234V10.1328L30.6484 10.1953V10.3047L30.6797 10.3828L30.5391 10.7109V10.9297C30.5703 10.9609 30.6068 11.0182 30.6484 11.1016C30.6484 11.1224 30.6458 11.151 30.6406 11.1875C30.6354 11.224 30.6328 11.2526 30.6328 11.2734C30.6328 11.2891 30.6354 11.3177 30.6406 11.3594C30.6458 11.3958 30.6484 11.4219 30.6484 11.4375C30.6953 11.5104 30.7318 11.6302 30.7578 11.7969L30.9922 11.9688L31.1016 12.1875L31.3828 12.4219L31.7891 12.4844C31.9036 12.4062 32.0807 12.3125 32.3203 12.2031L32.3047 12.0781C32.3984 12.0104 32.5339 11.9115 32.7109 11.7812L32.7578 11.625C32.8568 11.5417 32.9505 11.4245 33.0391 11.2734L33.2734 11.1641C33.3672 10.9349 33.4036 10.6693 33.3828 10.3672ZM41.0156 11.6875C40.9583 11.7656 40.8411 11.8516 40.6641 11.9453C40.4922 12.0391 40.3958 12.1042 40.375 12.1406V12.2031C40.3073 12.2552 40.2135 12.3281 40.0938 12.4219L39.9844 12.6562L39.7031 12.875L39.6406 13C39.4583 13.125 39.1641 13.1719 38.7578 13.1406C38.5182 13.0729 38.3047 12.9844 38.1172 12.875L38.0547 12.625C38.0703 12.3958 38.138 12.1302 38.2578 11.8281C37.9714 11.9062 37.7604 12.0312 37.625 12.2031C37.3958 12.4844 37.2682 12.6354 37.2422 12.6562L37.2734 12.7031C37.263 12.724 37.2474 12.7526 37.2266 12.7891C37.2057 12.8255 37.1901 12.8542 37.1797 12.875H36.9609C36.8047 13.0104 36.612 13.0885 36.3828 13.1094C35.9089 13.0938 35.474 12.9062 35.0781 12.5469C35.0312 12.3438 34.9635 12.0781 34.875 11.75C34.875 11.3906 34.9583 11.0807 35.125 10.8203V10.7734C35.4427 10.362 35.5781 10.0182 35.5312 9.74219L35.4062 9.67969L35.3594 9.74219H35.2344L35.125 9.85156L34.9531 9.91406L34.6719 9.85156L34.75 9.44531L34.9531 9.28906C35.1198 9.2474 35.3125 9.22656 35.5312 9.22656L35.7031 9.11719H35.8203L35.8828 9.00781L36.1016 8.94531L36.2109 8.66406L36.2734 8.60156L36.5078 8.71094L36.7891 8.60156L37.1328 8.71094C37.1536 8.82552 37.1693 8.9974 37.1797 9.22656L37.1328 9.33594L36.8516 9.39844C36.8151 9.44531 36.7734 9.53906 36.7266 9.67969H36.6797C36.6276 9.98177 36.5495 10.1745 36.4453 10.2578V10.3047C36.3932 10.3516 36.3151 10.4505 36.2109 10.6016L36.1641 11.0547L36.1016 11.1016C36.0078 11.2526 35.9714 11.4271 35.9922 11.625L36.0391 11.6875C36.0182 11.7656 36.0651 11.9193 36.1797 12.1484C36.2995 12.3724 36.3984 12.5208 36.4766 12.5938H36.6797C36.7109 12.5729 36.9401 12.349 37.3672 11.9219L37.5391 11.8594L37.5703 11.75C37.6536 11.7292 37.7161 11.6875 37.7578 11.625L37.8672 11.5781V11.5156C37.9089 11.4323 37.9661 11.3359 38.0391 11.2266C38.1536 11.1849 38.2708 11.1146 38.3906 11.0156C38.5677 10.8698 38.6693 10.7891 38.6953 10.7734C38.7214 10.6641 38.7578 10.5859 38.8047 10.5391H38.8672C38.9349 10.3099 39.0625 9.98177 39.25 9.55469C39.3021 9.47656 39.375 9.35156 39.4688 9.17969C39.4531 9.07031 39.474 8.95573 39.5312 8.83594L39.9844 8.63281L40.375 8.77344C40.4375 8.88802 40.4583 9.02344 40.4375 9.17969L40.375 9.28906V9.46094H40.3281L40.1562 9.80469H40.0938C40.0208 9.85677 39.9635 10.0234 39.9219 10.3047H39.875C39.8385 10.4453 39.7812 10.6016 39.7031 10.7734V11.0547L39.5312 11.4531L39.4688 11.5156L39.2969 11.9688V12.1406C39.2969 12.1667 39.2995 12.2083 39.3047 12.2656C39.3099 12.3229 39.3125 12.3646 39.3125 12.3906C39.5104 12.2656 39.6406 12.1615 39.7031 12.0781L40.0469 12.0312L40.0938 11.9688V11.8594C40.1979 11.7604 40.349 11.6094 40.5469 11.4062C40.6927 11.349 40.7917 11.3255 40.8438 11.3359L41.0156 11.5781V11.6875ZM46.4062 9.69531L46.375 10.0703L46.1797 10.1172C46.1432 10.0964 45.9922 10.0859 45.7266 10.0859C45.6328 10.0859 45.513 10.0495 45.3672 9.97656C45.263 9.8099 45.1797 9.6901 45.1172 9.61719L44.8828 9.52344C44.737 9.63281 44.6276 9.76823 44.5547 9.92969L44.5234 10.1484L44.3516 10.2578L44.1797 10.5391L44.1953 10.7422L44.1328 10.9453L43.9922 11.0078L44.0078 11.2266L43.8359 11.4062C43.8151 11.5677 43.763 11.6979 43.6797 11.7969L43.5078 11.8594L43.4766 12.0625L43.5078 12.2031L43.4453 12.4375L43.3359 12.5938L43.2891 12.8125L43.0859 13.0625C42.8984 13.1042 42.7604 13.1406 42.6719 13.1719C42.5625 13.0885 42.4062 13.0469 42.2031 13.0469C42.1562 13.0469 42.0625 13.0703 41.9219 13.1172C41.7865 13.1641 41.6927 13.1823 41.6406 13.1719L41.5625 13.0156L41.5781 12.8281C41.6667 12.7604 41.7917 12.6458 41.9531 12.4844C41.9271 12.2969 41.9479 12.1458 42.0156 12.0312H42.0781L42.1094 11.8906L42.1875 11.8594L42.2344 11.7188H42.2969L42.4062 11.4375C42.4688 11.3594 42.5729 11.2578 42.7188 11.1328C42.7188 11.0234 42.7917 10.8776 42.9375 10.6953V10.5078C43.0781 10.2057 43.1328 9.96615 43.1016 9.78906L42.9844 9.57031L42.8281 9.52344C42.7656 9.53385 42.6667 9.53906 42.5312 9.53906L42.3594 9.64844L42.1875 9.55469L42.0156 9.58594L41.9531 9.53906H41.7344V9.41406C41.8125 9.30469 41.9271 9.23177 42.0781 9.19531L42.2344 9.21094C42.3385 9.09115 42.4948 9.00781 42.7031 8.96094H42.9219L42.9844 8.91406L43.2266 8.94531C43.3047 8.94531 43.4349 8.8724 43.6172 8.72656C43.7682 8.78385 43.8984 8.84635 44.0078 8.91406C44.1016 9.04948 44.1589 9.15885 44.1797 9.24219V9.30469L44.3047 9.57031H44.3516C44.4349 9.40365 44.5625 9.22656 44.7344 9.03906C44.9375 8.82552 45.1172 8.70052 45.2734 8.66406L45.4453 8.72656L45.5547 8.88281C45.6901 8.9401 45.7943 9.02344 45.8672 9.13281V9.25781L46.0703 9.46094L46.2891 9.52344V9.57031L46.4062 9.69531ZM51.6875 9.05469L51.6719 9.21094C51.599 9.35677 51.5156 9.47656 51.4219 9.57031L50.8672 9.61719C50.5964 9.47135 50.3984 9.35677 50.2734 9.27344C50.1276 9.29427 50.0078 9.30469 49.9141 9.30469C49.8828 9.30469 49.8359 9.29688 49.7734 9.28125C49.7109 9.26562 49.6641 9.25781 49.6328 9.25781C49.6224 9.25781 49.4922 9.27344 49.2422 9.30469L48.9453 9.49219C48.9297 9.5599 48.8984 9.61719 48.8516 9.66406C48.7891 9.83594 48.6745 10.0911 48.5078 10.4297V10.5859L48.3359 10.6953L48.3516 10.8203L48.2734 10.9609L48.1484 11.0234V11.0859L47.9766 11.3047C47.9297 11.5026 47.9115 11.6406 47.9219 11.7188H48.0391C47.9818 11.9427 47.9609 12.151 47.9766 12.3438L48.0391 12.4531C48.0755 12.4792 48.2109 12.5365 48.4453 12.625C48.6224 12.6146 48.8646 12.5521 49.1719 12.4375C49.5 12.3177 49.7161 12.1979 49.8203 12.0781L49.8828 11.875L49.9922 11.7344L50.2422 11.5938L50.4609 11.625L50.5391 11.7812L50.6641 11.8906V12.0625C50.4505 12.2135 50.2995 12.3438 50.2109 12.4531C50.0339 12.526 49.8411 12.6198 49.6328 12.7344C49.5026 12.7552 49.388 12.7969 49.2891 12.8594H49.2422L49.1797 12.9688V13H49.0234L48.8359 13.1406H48.5547C48.2786 13.1406 48.0312 13.1042 47.8125 13.0312V12.9062L47.5781 12.7344C47.5521 12.6302 47.5156 12.5573 47.4688 12.5156C47.3698 12.4271 47.2188 12.3594 47.0156 12.3125C46.9688 12.1667 46.8906 12.0312 46.7812 11.9062C46.7396 11.7604 46.7188 11.5443 46.7188 11.2578C46.7188 11.1172 46.7656 10.9427 46.8594 10.7344C46.9583 10.5208 47.0625 10.3724 47.1719 10.2891L47.1406 10.2266L47.1719 10.1172H47.2344L47.3438 9.88281V9.83594L47.4688 9.66406L47.6562 9.58594C47.6875 9.47135 47.75 9.36719 47.8438 9.27344L48.0703 9.14844L48.1641 8.91406L48.3828 8.85156L48.4609 8.72656H48.6641L48.9609 8.57031C49.138 8.5599 49.3984 8.52344 49.7422 8.46094L50.2109 8.57031L50.3203 8.74219C50.5547 8.78385 50.7318 8.85156 50.8516 8.94531C50.9089 8.94531 50.9948 8.94271 51.1094 8.9375C51.224 8.93229 51.3125 8.92969 51.375 8.92969C51.474 8.92969 51.5781 8.97135 51.6875 9.05469ZM56.0234 9.77344L55.9609 9.83594L55.9453 10.0078L56.0078 10.1641L55.9453 10.3516L55.9766 10.5859C55.8464 10.8672 55.7161 11.0547 55.5859 11.1484C55.5755 11.1484 55.5365 11.1562 55.4688 11.1719C55.401 11.1875 55.362 11.1953 55.3516 11.1953C55.3411 11.1953 55.2266 11.1797 55.0078 11.1484L54.8984 11.0859C54.7734 11.1016 54.4922 11.0703 54.0547 10.9922C53.6224 10.9089 53.3307 10.8359 53.1797 10.7734L52.9844 10.8672C52.9688 10.8932 52.9167 11.0312 52.8281 11.2812C52.7448 11.5312 52.7031 11.6667 52.7031 11.6875C52.7031 11.7344 52.7057 11.8021 52.7109 11.8906C52.7161 11.9792 52.7188 12.0469 52.7188 12.0938L52.9531 12.5781C53.099 12.6302 53.1849 12.6562 53.2109 12.6562C53.2266 12.6562 53.2422 12.6536 53.2578 12.6484C53.2734 12.6432 53.2891 12.6406 53.3047 12.6406L53.7734 12.6875C53.8932 12.6562 54.0286 12.5938 54.1797 12.5C54.3672 12.3802 54.4922 12.3073 54.5547 12.2812L54.6641 12.2656C54.7839 12.1771 54.8776 12.0677 54.9453 11.9375L55.2734 11.8438L55.3359 12.0156C55.3099 12.1458 55.0391 12.4688 54.5234 12.9844C54.3516 13.0677 54.1094 13.1224 53.7969 13.1484C53.4531 13.1745 53.2109 13.2135 53.0703 13.2656L52.7188 13.2031L52.6719 13.1562L52.3906 13.0938C52.125 12.9167 51.875 12.6146 51.6406 12.1875C51.6302 12.0625 51.6042 11.9115 51.5625 11.7344C51.5885 11.6406 51.625 11.4453 51.6719 11.1484L51.7344 11.0859L51.7031 11.0391L51.8125 10.9297L51.875 10.6953C51.9635 10.638 52.0365 10.5234 52.0938 10.3516V9.83594L52.2188 9.78906L52.3281 9.38281C52.7083 8.9401 53.112 8.65365 53.5391 8.52344C53.5651 8.52344 53.6042 8.52604 53.6562 8.53125C53.7083 8.53646 53.7474 8.53906 53.7734 8.53906C53.9245 8.4974 53.9974 8.47656 53.9922 8.47656L54.1797 8.55469C54.2422 8.54427 54.3307 8.51823 54.4453 8.47656C54.5234 8.48177 54.638 8.51042 54.7891 8.5625C54.9401 8.61458 55.0547 8.64323 55.1328 8.64844L55.2891 8.82031L55.4453 8.88281L55.5234 8.99219L55.7422 9.08594L55.8672 9.22656C55.8932 9.28385 55.9193 9.375 55.9453 9.5C55.9714 9.625 55.9974 9.71615 56.0234 9.77344ZM55.1328 9.96094L55.0703 9.89844C55.0703 9.71094 55.0651 9.57031 55.0547 9.47656C54.9922 9.35156 54.7943 9.15885 54.4609 8.89844C54.263 8.89844 54.0078 8.96094 53.6953 9.08594L53.6172 9.21094L53.4766 9.30469L53.4141 9.44531L53.3672 9.49219V9.61719L53.2734 9.69531C53.2422 9.75781 53.2161 9.86198 53.1953 10.0078H53.1328L53.1172 10.1484L53.1641 10.3359C53.487 10.5026 54.0651 10.6068 54.8984 10.6484C54.9401 10.487 54.9974 10.388 55.0703 10.3516L55.1328 9.96094ZM75.2344 15.0547C75.2135 15.1276 75.1536 15.2161 75.0547 15.3203C74.9609 15.4245 74.9062 15.5078 74.8906 15.5703L75.0156 15.8516L74.8906 16.0703C74.7396 16.1745 74.4922 16.2656 74.1484 16.3438C73.6328 16.4583 73.3672 16.5182 73.3516 16.5234C73.0703 16.4922 72.9193 16.4766 72.8984 16.4766C72.5599 16.4766 72.2734 16.513 72.0391 16.5859L71.8047 16.5234L71.5234 16.3047L71.2422 16.2422L70.9609 15.8984L70.8281 15.8516C70.7135 15.6589 70.5052 15.5078 70.2031 15.3984L69.9219 15.1016L69.7031 15.0547C69.6354 15.0651 69.5573 15.0807 69.4688 15.1016C69.3073 15.2005 69.0625 15.3359 68.7344 15.5078C68.5885 15.5495 68.3802 15.6224 68.1094 15.7266C67.7917 15.8776 67.5755 16.0339 67.4609 16.1953L66.9609 16.3672L66.7266 16.5859C66.5443 16.5807 66.0859 16.7161 65.3516 16.9922C65.2109 17.0443 64.888 17.0807 64.3828 17.1016C63.9401 17.1224 63.6354 17.1953 63.4688 17.3203L63.125 17.2734L62.8438 17.4453C62.6875 17.4505 62.4453 17.4844 62.1172 17.5469C61.7891 17.6146 61.5469 17.6484 61.3906 17.6484C60.875 17.6484 60.2943 17.5807 59.6484 17.4453C59.5859 17.4349 59.4349 17.2839 59.1953 16.9922L59.0234 16.9297L58.7891 16.4141L58.7422 16.3672L59.0391 15.6953C59.1484 15.5651 59.3203 15.4349 59.5547 15.3047C59.8099 15.1641 60.0208 15.0938 60.1875 15.0938C60.2188 15.0938 60.2474 15.0964 60.2734 15.1016L60.5078 14.9297C60.6068 14.9453 60.7318 14.9349 60.8828 14.8984C61.0703 14.8516 61.1927 14.8255 61.25 14.8203C61.25 14.8203 61.5 14.8203 62 14.8203C62.0833 14.8984 62.2266 14.9792 62.4297 15.0625C62.6849 15.1719 62.8385 15.2422 62.8906 15.2734C62.9479 15.3099 63.1615 15.4453 63.5312 15.6797L63.9219 15.7266L64.0469 15.8516H64.1562L64.2188 16.0234L64.0469 16.2422H63.4219C63.2083 16.1745 62.8906 16.0651 62.4688 15.9141C62.3281 15.8516 62.1094 15.763 61.8125 15.6484C61.6406 15.612 61.3932 15.5286 61.0703 15.3984C60.8307 15.4036 60.5729 15.4583 60.2969 15.5625C59.9583 15.6927 59.7214 15.7682 59.5859 15.7891L59.3047 16.2422V16.3672L59.8203 17.0391C59.888 17.0286 60.0651 17.0495 60.3516 17.1016C60.6641 17.1536 60.8672 17.1797 60.9609 17.1797C61.2474 17.1797 61.724 17.1172 62.3906 16.9922C62.4896 16.9609 62.6406 16.9193 62.8438 16.8672C63.0417 16.8672 63.3281 16.8516 63.7031 16.8203C63.724 16.8151 63.8385 16.7839 64.0469 16.7266C64.1875 16.6849 64.3047 16.6745 64.3984 16.6953L64.7266 16.5234L64.9609 16.5859C65.3359 16.487 65.6562 16.3464 65.9219 16.1641C66.1979 15.9609 66.4714 15.7578 66.7422 15.5547C66.9297 15.4714 67.2109 15.3411 67.5859 15.1641C67.862 14.9922 68.349 14.7396 69.0469 14.4062L68.6094 13.9531L68.5 13.9062C68.4375 13.7812 68.3594 13.6875 68.2656 13.625L68.0156 13.1094C67.875 12.9844 67.7057 12.8698 67.5078 12.7656C67.1901 12.276 66.9609 11.8229 66.8203 11.4062L66.5859 11.3359V11.2891L66.4766 11.1641L66.4141 10.9922H66.3672C66.2214 10.8464 66.112 10.5911 66.0391 10.2266C65.8984 10.0859 65.651 9.69531 65.2969 9.05469C64.9635 8.45052 64.7682 8.13281 64.7109 8.10156L64.4766 8.14844L64.3594 8.32031H63.7969L63.2812 8.55469C63.1979 8.60677 63.1198 8.72135 63.0469 8.89844H62.875V8.94531H62.8281L62.7031 9.11719L62.6562 9.57031L62.5938 9.69531L62.6562 9.80469L62.5938 9.91406C62.6042 10.0495 62.5677 10.2995 62.4844 10.6641H62.4219L62.375 10.7734V10.8828L62.3125 10.9453L62.25 11.1172L62.0781 11.2891L61.9688 11.5781C61.8021 11.75 61.5365 11.9948 61.1719 12.3125C60.974 12.4219 60.6849 12.5938 60.3047 12.8281H60.1328L59.9141 13H59.0547C59.0078 13 58.8906 12.974 58.7031 12.9219C58.5156 12.8646 58.388 12.8333 58.3203 12.8281L58.1484 12.7188L58.1016 12.625C57.9297 12.625 57.75 12.5781 57.5625 12.4844L57.1094 11.9688C57.0208 11.7917 56.9583 11.5703 56.9219 11.3047C56.9375 11.0911 57.0573 10.8203 57.2812 10.4922C57.651 10.237 57.8724 10.0391 57.9453 9.89844L58.3672 9.85156C58.513 9.65885 58.612 9.54948 58.6641 9.52344H58.8828L59.0703 9.61719L59.3359 10.0234V10.6016L59.1797 10.8203L58.8516 10.6797L58.6641 10.3672L58.4297 10.2578C58.0391 10.4401 57.7344 10.7422 57.5156 11.1641L57.4531 11.5156L57.7344 11.9688C58.2344 12.2812 58.6589 12.4375 59.0078 12.4375C59.3724 12.4375 59.6536 12.3594 59.8516 12.2031C59.987 12.0208 60.1953 11.7552 60.4766 11.4062C60.4922 11.3281 60.5651 11.1016 60.6953 10.7266C60.8255 10.3516 60.9036 10.138 60.9297 10.0859L61.0547 10.0234L61.1875 9.52344C61.3906 9.27344 61.5781 9.00781 61.75 8.72656L61.9062 8.66406L61.8594 8.25781L62.0781 8.10156C62.1979 7.59115 62.3594 7.01562 62.5625 6.375L62.7031 6.26562L62.7812 6.03125L62.9219 5.9375L62.875 5.75C62.9583 5.64583 63.0234 5.5026 63.0703 5.32031C63.1172 5.17448 63.1615 5.02604 63.2031 4.875C63.3385 4.49479 63.5312 4.03385 63.7812 3.49219L63.5156 3.41406C63.0469 3.46094 62.4583 3.66927 61.75 4.03906C61.6406 4.11719 61.4479 4.21094 61.1719 4.32031L61.0547 4.49219C61.0026 4.52344 60.9245 4.5599 60.8203 4.60156H60.7734C60.5234 4.9349 60.3099 5.14583 60.1328 5.23438V5.29688L59.9766 5.35938L60.0234 5.46875L59.8828 5.53125L59.5391 6.03125H59.5078C59.4297 6.10938 59.3568 6.30208 59.2891 6.60938L59.3203 6.875L59.6016 6.9375L60.0234 6.82812C60.1536 6.75 60.3047 6.61979 60.4766 6.4375C60.6641 6.23438 60.8047 6.09896 60.8984 6.03125L60.9922 5.75L61.1406 5.625C61.1406 5.61979 61.2292 5.46615 61.4062 5.16406C61.5156 4.97656 61.5729 4.8099 61.5781 4.66406L61.75 4.49219H61.9531L62.0938 4.75781L62.125 5.14062L61.9688 5.65625C61.7135 5.80208 61.5208 5.98958 61.3906 6.21875L61.1016 6.375L61.0391 6.59375C60.8828 6.66146 60.7578 6.77083 60.6641 6.92188L60.4297 6.95312L60.3984 7.07812L60.2422 7.25C60.0339 7.35417 59.8359 7.40625 59.6484 7.40625C59.4766 7.40625 59.3203 7.39062 59.1797 7.35938C58.9141 7.16146 58.7578 6.83333 58.7109 6.375H58.6641C58.6641 6.18229 58.7109 5.97396 58.8047 5.75C58.9557 5.61458 59.1745 5.40104 59.4609 5.10938C59.6016 5.0625 59.9036 4.83594 60.3672 4.42969H60.4297L60.5391 4.21094C60.6484 4.10677 60.7656 4.02865 60.8906 3.97656C61.0938 3.89323 61.2031 3.84635 61.2188 3.83594C61.375 3.72135 61.6146 3.5599 61.9375 3.35156C62.0781 3.27344 62.4349 3.1849 63.0078 3.08594C63.5651 2.98698 63.9219 2.94531 64.0781 2.96094L64.4297 2.78906L64.6328 2.38281C64.9453 2.07031 65.2057 1.89844 65.4141 1.86719L65.6484 1.63281C65.8151 1.57031 66.0703 1.47396 66.4141 1.34375C66.5391 1.27604 66.7318 1.1875 66.9922 1.07812C67.112 1.06771 67.2943 1.01042 67.5391 0.90625C67.6953 0.921875 67.8542 0.880208 68.0156 0.78125H68.4219L68.5312 0.84375C68.5938 0.942708 68.6146 1.07292 68.5938 1.23438L68.4219 1.34375H68.1875L67.9688 1.58594C67.5833 1.60156 67.2474 1.6901 66.9609 1.85156L66.6172 1.83594L66.1016 2.00781C65.9974 2.07552 65.8464 2.1849 65.6484 2.33594C65.5391 2.45052 65.3776 2.61719 65.1641 2.83594L65.1172 3.00781C65.6172 3.04948 65.9922 3.08594 66.2422 3.11719C66.3307 3.20573 66.5234 3.30469 66.8203 3.41406L66.9922 3.63281L67.1641 3.69531C67.2266 3.76823 67.2943 3.88542 67.3672 4.04688C67.4401 4.22917 67.4661 4.35677 67.4453 4.42969L67.5078 4.49219C67.5807 4.77865 67.6172 5.13542 67.6172 5.5625C67.6172 5.85417 67.4661 6.18229 67.1641 6.54688L66.9922 6.60938L66.9297 6.71875V6.78125C66.9089 6.8125 66.6641 6.98438 66.1953 7.29688L65.9609 7.34375L66.2422 7.51562C66.4818 7.77083 66.6536 8.03906 66.7578 8.32031L66.6484 8.49219L66.7109 8.77344C66.8672 8.88802 66.9766 8.98698 67.0391 9.07031H67.1016L67.3828 9.28906L67.6172 9.86719L67.7812 10.0391L67.7969 10.3203C67.8906 10.4766 68.0104 10.7109 68.1562 11.0234C68.25 11.0859 68.375 11.1901 68.5312 11.3359L68.5938 11.6406L68.9375 12.0312C68.974 12.1771 69.151 12.5 69.4688 13C69.5729 13.1875 69.6771 13.375 69.7812 13.5625C69.9323 13.8177 70.0729 13.9688 70.2031 14.0156V14.0781H70.3281V14.125H70.5L70.8906 13.9531H71.2422C71.263 13.9323 71.2995 13.9167 71.3516 13.9062C71.4714 13.901 71.6432 13.8854 71.8672 13.8594C71.9245 13.849 72.0521 13.8099 72.25 13.7422C72.4115 13.6849 72.5495 13.6562 72.6641 13.6562C73.5807 13.6562 74.2292 13.7969 74.6094 14.0781C74.7448 14.1979 74.9531 14.3698 75.2344 14.5938V15.0547ZM66.4922 5.98438L66.3672 5.46875L66.3984 5.5625L66.4609 5.25L66.3516 4.95312C66.362 4.81771 66.3385 4.63542 66.2812 4.40625C66.2292 4.17188 66.2057 3.9974 66.2109 3.88281C65.9453 3.61719 65.5391 3.50781 64.9922 3.55469C65.0182 3.76823 64.9609 4.04427 64.8203 4.38281L64.6016 4.60156V4.77344H64.5391L64.4297 5.125L64.3125 5.23438V5.40625L64.0156 5.6875L63.7969 6.82812L64.1094 6.65625H64.4453L64.6328 6.78125H65.0078L65.3359 7.0625L65.7422 7.04688C65.8516 6.78646 66.0443 6.58854 66.3203 6.45312L66.4922 5.98438ZM74.6875 14.8516L74.6094 14.5938C73.8958 14.2604 73.2943 14.0938 72.8047 14.0938C72.7005 14.0938 72.5521 14.1276 72.3594 14.1953C72.1406 14.2734 71.9896 14.3151 71.9062 14.3203C71.8229 14.3255 71.6953 14.3385 71.5234 14.3594C71.1224 14.4427 70.8906 14.4792 70.8281 14.4688L70.7812 14.5312V14.6484L71.0078 14.9297L71.1328 14.9922C71.2578 15.3828 71.4089 15.6432 71.5859 15.7734C72.0234 16.0026 72.5547 16.1432 73.1797 16.1953C73.4453 16.1432 73.6745 16.0443 73.8672 15.8984L73.9141 15.6172L73.9766 15.5703H74.0391L74.0859 15.4453L74.6719 15.0547L74.6875 14.8516ZM64.7109 7.75V7.625L64.6016 7.51562L64.5234 7.32812C64.3828 7.26562 64.276 7.19271 64.2031 7.10938C64.0312 7.17708 63.8698 7.21875 63.7188 7.23438C63.5417 7.41146 63.4531 7.59896 63.4531 7.79688V8.10156C63.7812 7.9401 64.0833 7.875 64.3594 7.90625L64.6016 7.75H64.7109ZM74.2891 5.84375L74.1797 5.9375C74.1484 6.16667 74.0703 6.32292 73.9453 6.40625V6.5625L73.8203 6.70312L73.7578 6.92188L73.5547 6.96875C73.5339 7.13021 73.4818 7.26042 73.3984 7.35938C73.2839 7.42708 73.1797 7.51562 73.0859 7.625L72.8828 7.6875L72.7422 7.35938C72.7526 7.24479 72.7578 7.07292 72.7578 6.84375C72.8984 6.61458 72.9349 6.375 72.8672 6.125C72.9401 5.94271 73.0339 5.78646 73.1484 5.65625L73.4297 5.54688L73.4922 5.48438C73.5755 5.44271 73.6641 5.42188 73.7578 5.42188H74.0078C74.1224 5.47396 74.2161 5.55208 74.2891 5.65625V5.84375ZM73.5234 11.8281C73.5339 11.9167 73.4974 12.0469 73.4141 12.2188L73.3047 12.2812L73.2422 12.3906H73.1797L73.0703 12.5156L72.8359 12.5625C72.8203 12.599 72.7865 12.651 72.7344 12.7188C72.6823 12.7865 72.6484 12.8385 72.6328 12.875L72.4453 13.0156L72.2109 13.0781L72.1641 13.1406L71.9297 13.1875L71.8672 13.25L71.5781 13.1406C71.3438 13.1615 71.1146 13.1198 70.8906 13.0156V12.9688C70.849 12.9062 70.8125 12.8646 70.7812 12.8438L70.6719 12.7969C70.5781 12.6302 70.5312 12.4635 70.5312 12.2969L70.6094 12.1094C70.6927 12.0521 70.8333 11.8385 71.0312 11.4688C71.1615 11.2292 71.2917 10.987 71.4219 10.7422C71.4323 10.6172 71.5208 10.3307 71.6875 9.88281V9.77344L71.75 9.71094V9.64844H71.8203L71.9453 9.39844L71.9297 9.14844L71.8672 9.08594C71.7161 9.10156 71.5833 9.15885 71.4688 9.25781V9.32031C71.2604 9.38281 71.1094 9.4349 71.0156 9.47656L70.8906 9.60156C70.7865 9.61719 70.6771 9.65365 70.5625 9.71094L70.4375 9.69531L70.3281 9.60156L70.2969 9.47656L70.3281 9.32031C70.5104 9.17448 70.6615 9.09115 70.7812 9.07031C70.9479 9.03906 71.1146 9.00781 71.2812 8.97656C71.349 8.94531 71.4479 8.89844 71.5781 8.83594C71.8854 8.70052 72.2682 8.63281 72.7266 8.63281C72.737 8.63281 72.776 8.64062 72.8438 8.65625C72.9115 8.67188 72.9505 8.67969 72.9609 8.67969C73.0547 8.77344 73.1276 8.88802 73.1797 9.02344H73.2422C73.2839 9.09115 73.3047 9.23177 73.3047 9.44531C73.3047 9.46615 73.2891 9.55469 73.2578 9.71094C73.2214 9.73698 73.138 9.83073 73.0078 9.99219L72.8359 10.0547L72.7891 10.2266H72.7266L72.6172 10.3359C72.6328 10.487 72.612 10.6589 72.5547 10.8516H72.5078C72.487 10.9818 72.4453 11.0964 72.3828 11.1953L72.2109 11.3516C72.0859 11.7526 72.0286 11.9688 72.0391 12H71.9922C71.9818 12.0938 71.9557 12.2292 71.9141 12.4062L71.9297 12.5938C72.0859 12.5833 72.2995 12.5 72.5703 12.3438C72.8464 12.1823 73.013 12.0312 73.0703 11.8906L73.2578 11.7812L73.3984 11.7656L73.5234 11.8281ZM78.6172 9.77344L78.5547 9.83594L78.5391 10.0078L78.6016 10.1641L78.5391 10.3516L78.5703 10.5859C78.4401 10.8672 78.3099 11.0547 78.1797 11.1484C78.1693 11.1484 78.1302 11.1562 78.0625 11.1719C77.9948 11.1875 77.9557 11.1953 77.9453 11.1953C77.9349 11.1953 77.8203 11.1797 77.6016 11.1484L77.4922 11.0859C77.3672 11.1016 77.0859 11.0703 76.6484 10.9922C76.2161 10.9089 75.9245 10.8359 75.7734 10.7734L75.5781 10.8672C75.5625 10.8932 75.5104 11.0312 75.4219 11.2812C75.3385 11.5312 75.2969 11.6667 75.2969 11.6875C75.2969 11.7344 75.2995 11.8021 75.3047 11.8906C75.3099 11.9792 75.3125 12.0469 75.3125 12.0938L75.5469 12.5781C75.6927 12.6302 75.7786 12.6562 75.8047 12.6562C75.8203 12.6562 75.8359 12.6536 75.8516 12.6484C75.8672 12.6432 75.8828 12.6406 75.8984 12.6406L76.3672 12.6875C76.487 12.6562 76.6224 12.5938 76.7734 12.5C76.9609 12.3802 77.0859 12.3073 77.1484 12.2812L77.2578 12.2656C77.3776 12.1771 77.4714 12.0677 77.5391 11.9375L77.8672 11.8438L77.9297 12.0156C77.9036 12.1458 77.6328 12.4688 77.1172 12.9844C76.9453 13.0677 76.7031 13.1224 76.3906 13.1484C76.0469 13.1745 75.8047 13.2135 75.6641 13.2656L75.3125 13.2031L75.2656 13.1562L74.9844 13.0938C74.7188 12.9167 74.4688 12.6146 74.2344 12.1875C74.224 12.0625 74.1979 11.9115 74.1562 11.7344C74.1823 11.6406 74.2188 11.4453 74.2656 11.1484L74.3281 11.0859L74.2969 11.0391L74.4062 10.9297L74.4688 10.6953C74.5573 10.638 74.6302 10.5234 74.6875 10.3516V9.83594L74.8125 9.78906L74.9219 9.38281C75.3021 8.9401 75.7057 8.65365 76.1328 8.52344C76.1589 8.52344 76.1979 8.52604 76.25 8.53125C76.3021 8.53646 76.3411 8.53906 76.3672 8.53906C76.5182 8.4974 76.5911 8.47656 76.5859 8.47656L76.7734 8.55469C76.8359 8.54427 76.9245 8.51823 77.0391 8.47656C77.1172 8.48177 77.2318 8.51042 77.3828 8.5625C77.5339 8.61458 77.6484 8.64323 77.7266 8.64844L77.8828 8.82031L78.0391 8.88281L78.1172 8.99219L78.3359 9.08594L78.4609 9.22656C78.487 9.28385 78.513 9.375 78.5391 9.5C78.5651 9.625 78.5911 9.71615 78.6172 9.77344ZM77.7266 9.96094L77.6641 9.89844C77.6641 9.71094 77.6589 9.57031 77.6484 9.47656C77.5859 9.35156 77.388 9.15885 77.0547 8.89844C76.8568 8.89844 76.6016 8.96094 76.2891 9.08594L76.2109 9.21094L76.0703 9.30469L76.0078 9.44531L75.9609 9.49219V9.61719L75.8672 9.69531C75.8359 9.75781 75.8099 9.86198 75.7891 10.0078H75.7266L75.7109 10.1484L75.7578 10.3359C76.0807 10.5026 76.6589 10.6068 77.4922 10.6484C77.5339 10.487 77.5911 10.388 77.6641 10.3516L77.7266 9.96094Z"
    fill="#000"
  />
</svg>
