<svg width="760" height="280" viewBox="0 0 760 280" fill="none" xmlns="http://www.w3.org/2000/svg">
  <path
    d="M68.2481 158.751C65.6939 148.951 60.5 146.929 50.0901 146.814C45.5 146.929 42.4782 146.929 38.2724 146.929C38.2724 160.89 38.2724 174.639 38.2724 188.696C31.6799 188.696 25.472 188.696 19.0825 188.696C19.0825 151.468 19.0825 114.376 19.0825 76.7517C24.4394 76.7517 29.6993 76.7409 34.959 76.7539C46.956 76.7836 58.966 76.4826 70.9472 76.9366C92.4372 77.751 104.174 90.4534 103.556 112.019C103.175 125.316 99.5642 137.021 86.2124 143.284C82.7928 144.888 83.9381 147.522 85.1836 150.059C93.3267 166.646 101.453 183.241 109.574 199.839C116.747 214.497 123.975 229.128 131.006 243.853C132.241 246.437 133.625 247.292 136.376 246.653C167.204 239.502 198.046 232.41 228.881 225.288C229.183 225.219 229.443 224.972 230.264 224.491C227.385 215.399 224.461 206.165 221.108 195.581C238.972 205.748 255.651 215.24 272.914 225.065C264.034 240.743 255.315 256.137 245.981 272.617C242.992 263.508 240.171 255.603 237.861 247.551C236.837 243.983 235.456 243.345 231.898 244.175C197.023 252.313 162.08 260.161 127.222 268.369C123.026 269.357 121.478 268.271 119.741 264.633C104.962 233.68 89.9808 202.823 75.0255 171.954C72.9233 167.615 70.6321 163.368 68.2481 158.751ZM68.8252 94.2605C58.716 94.2605 48.6067 94.2605 38.3118 94.2605C38.3118 106.008 38.3118 117.389 38.3118 129.131C43.871 129.131 49.1714 129.127 54.4718 129.132C58.1349 129.135 61.7983 129.184 65.461 129.15C75.7794 129.054 82.8921 123.515 83.9863 114.764C85.3432 103.912 80.6584 97.2251 68.8252 94.2605Z"
    fill="black"
  />
  <path
    d="M308.443 168.652C315.434 164.308 318.804 158.021 320.426 150.284C327.159 150.284 333.932 150.284 340.81 150.284C338.493 163.09 333.992 174.7 322.815 182.422C293.941 202.369 254.298 188.355 244.953 154.579C239.235 133.909 240.16 113.473 252.346 95.0356C262.43 79.7782 277.727 74.3585 295.498 74.7707C312.081 75.1554 325.838 81 334.165 95.9865C337.409 101.824 338.338 108.501 341 115.419C333.3 115.419 327.048 115.419 320.5 115.419C320.253 115.16 320.404 114.965 320.331 114.695C316.7 101.317 309.735 94.5635 296.667 93.339C283.772 92.1307 273.217 97.1508 267.094 108.733C258.589 124.823 258.472 141.565 267.422 157.438C275.778 172.26 292.706 176.52 308.443 168.652Z"
    fill="black"
  />
  <path
    d="M559.102 125.764C551.373 130.127 549.053 136.97 549.011 144.877C548.935 159.358 548.989 173.838 548.989 188.662C542.856 188.662 536.801 188.662 530.451 188.662C530.451 151.518 530.451 114.321 530.451 76.9089C536.547 76.9089 542.49 76.9089 548.774 76.9089C548.774 89.1169 548.774 101.387 548.774 113.165C554.994 111.273 560.921 108.817 567.084 107.806C571.885 107.017 577.095 107.433 581.921 108.363C591.455 110.2 597.391 116.288 599.67 125.773C600.174 127.869 600.682 130.034 600.691 132.17C600.77 150.951 600.737 169.732 600.737 188.759C594.65 188.759 588.597 188.759 582.229 188.759C582.229 175.608 582.229 162.664 582.229 149.72C582.229 147.055 582.274 144.39 582.218 141.727C581.907 126.942 573.526 121.006 559.102 125.764Z"
    fill="black"
  />
  <path
    d="M667.488 109.338C682.048 114.416 688.159 125.347 689.64 139.419C690.157 144.337 689.722 149.355 689.722 154.829C671.224 154.829 652.824 154.829 634.389 154.829C635.506 168.791 647.708 177.438 660.034 173.117C663.007 172.074 666.871 170.054 667.839 167.53C670.026 161.829 674.029 162.153 678.519 162.278C682.177 162.38 685.84 162.298 689.516 162.298C686.678 178.926 674.667 189.231 657.931 190.149C643.06 190.965 630.628 186.842 622.095 174.007C611.489 158.056 612.634 128.9 628.913 115.869C640.412 106.665 653.356 105.563 667.488 109.338ZM645.304 125.554C639.135 128.709 635.534 133.575 634.759 140.716C647.5 140.716 659.754 140.716 672.729 140.716C671.937 137.838 671.616 135.158 670.496 132.868C666.286 124.264 657.251 121.52 645.304 125.554Z"
    fill="black"
  />
  <path
    d="M213.191 112.72C228.309 123.268 229.029 138.535 228.043 154.862C209.725 154.862 191.484 154.862 173.362 154.862C171.395 162.317 179.571 171.572 187.017 173.474C195.438 175.625 204.233 172.651 207.624 165.578C208.832 163.057 210.098 162.153 212.82 162.273C217.771 162.491 222.738 162.335 228.12 162.335C225.931 172.996 220.95 181.198 211.468 186.201C196.808 193.936 176.292 191.077 164.707 179.322C156.712 171.211 153.867 160.875 153.722 149.698C153.569 137.818 156.243 126.805 164.858 118.148C177.062 105.884 196.883 103.736 213.191 112.72ZM177.136 130.721C175.557 133.892 173.978 137.063 172.158 140.72C185.76 140.72 198.201 140.72 210.646 140.72C210.41 132.79 206.741 127.165 199.919 124.79C191.416 121.83 183.914 123.647 177.136 130.721Z"
    fill="black"
  />
  <path
    d="M353.924 134.994C359.117 114.972 375.743 106.618 394.102 107.49C423.567 108.889 434.051 135.618 429.394 159.921C422.866 193.989 381.806 197.144 364.512 180.75C353.554 170.362 351.171 157.048 352.364 142.719C352.569 140.254 353.339 137.835 353.924 134.994ZM371.1 154.874C371.475 156.322 371.768 157.797 372.236 159.214C375.117 167.931 382.476 173.531 391.156 173.663C399.814 173.794 407.187 168.422 410.191 159.512C412.603 152.358 412.587 145.081 410.151 137.939C407.27 129.495 400.236 124.275 391.914 124.079C383.19 123.874 375.62 128.591 372.925 137.362C371.313 142.607 371.58 148.429 371.1 154.874Z"
    fill="black"
  />
  <path
    d="M491.022 170.131C493.525 165.896 495.764 161.929 498.371 157.309C503.326 157.309 509.432 157.309 515.584 157.309C514.849 168.005 511.699 177.286 502.892 183.97C482.857 199.174 451.036 188.35 444.687 164.132C441.964 153.744 442.101 143.374 444.954 133.067C449.555 116.443 465.15 105.807 482.459 107.352C500.9 108.999 509.853 115.776 514.293 131.62C515.004 134.16 515.233 136.835 515.757 139.861C509.53 139.861 503.487 139.861 497.138 139.861C496.847 138.808 496.484 137.565 496.162 136.311C494.47 129.739 490.494 125.296 483.697 124.252C476.425 123.135 469.84 125.025 465.926 131.671C459.414 142.728 459.407 154.319 465.609 165.403C470.691 174.489 481.133 176.208 491.022 170.131Z"
    fill="black"
  />
  <path
    d="M711.76 141.004C711.76 135.536 711.76 130.567 711.76 125.169C706.882 125.169 702.297 125.169 697.426 125.169C697.426 119.512 697.426 114.287 697.426 108.746C700.552 108.746 703.521 108.757 706.489 108.743C710.177 108.725 711.897 106.947 711.823 103.174C711.705 97.2072 711.792 91.2367 711.792 84.9783C717.971 84.9783 723.88 84.9783 730.384 84.9783C730.384 92.6666 730.384 100.389 730.384 108.564C736.206 108.564 741.454 108.564 746.95 108.564C746.95 114.13 746.95 119.24 746.95 124.876C741.726 124.876 736.316 124.876 730.45 124.876C730.45 139.508 730.431 153.62 730.465 167.733C730.473 170.884 732.332 172.068 735.32 172.014C739.121 171.946 742.923 171.998 746.961 171.998C746.961 177.725 746.961 183.122 746.961 188.724C738.793 188.724 730.651 189.164 722.581 188.59C715.621 188.094 712.174 184.046 712.002 176.98C711.716 165.159 711.82 153.329 711.76 141.004Z"
    fill="black"
  />
  <path
    d="M137.558 188.9C131.621 188.998 126.142 188.998 119.988 188.998C119.988 175.675 119.988 162.452 119.988 149.228C119.988 135.932 119.988 122.636 119.988 109.04C126.222 109.04 132.255 109.04 138.641 109.04C138.641 119.364 138.641 129.479 138.641 139.594C138.642 154.395 138.664 169.196 138.618 183.997C138.613 185.599 138.226 187.2 137.558 188.9Z"
    fill="black"
  />
  <path
    d="M140.131 87.0182C140.131 90.8172 140.131 94.1238 140.131 97.7041C132.828 97.7041 125.772 97.7041 118.484 97.7041C118.484 90.7737 118.484 84.0056 118.484 76.9622C125.601 76.9622 132.696 76.9622 140.131 76.9622C140.131 80.2317 140.131 83.3787 140.131 87.0182Z"
    fill="black"
  />
</svg>
