<svg width="360" height="360" viewBox="0 0 360 360" fill="none" xmlns="http://www.w3.org/2000/svg">
<g clip-path="url(#clip0_364_2389)">
<circle cx="180" cy="180" r="180" fill="white"/>
<path d="M138.796 290.257C125.082 261.885 111.542 233.844 97.9474 205.829C94.0255 197.747 90.0156 189.705 85.8651 181.739C85.2364 180.533 83.6442 179.078 82.4532 179.037C75.1611 178.788 67.8562 178.912 60.1653 178.912C60.1653 193.003 60.1653 206.75 60.1653 220.749C53.691 220.749 47.6056 220.749 41.2112 220.749C41.2112 183.582 41.2112 146.372 41.2112 109.133C60.2286 109.133 79.1977 108.438 98.0875 109.363C112.144 110.051 120.972 118.858 124.265 132.815C126.327 141.555 126.079 150.315 123.038 158.867C120.542 165.888 116.27 171.515 109.405 174.67C105.76 176.345 105.366 178.405 107.014 181.761C122.43 213.143 137.737 244.577 153.26 275.906C153.945 277.288 156.646 278.851 158.006 278.545C189.202 271.531 220.342 264.269 251.489 257.042C251.622 257.011 251.714 256.805 252.194 256.268C249.354 247.31 246.424 238.07 243.092 227.561C261.005 237.762 277.715 247.279 294.923 257.079C286.002 272.812 277.282 288.191 267.975 304.606C264.55 294.197 261.516 284.973 258.326 275.278C246.217 278.028 234.4 280.689 222.593 283.397C197.753 289.094 172.907 294.769 148.096 300.588C145.113 301.288 143.433 300.832 142.364 297.82C141.478 295.324 140.106 292.999 138.796 290.257ZM81.4804 161.154C84.308 161.133 87.1398 161.203 89.9624 161.074C99.0614 160.658 105.55 154.256 106.061 145.28C106.649 134.963 101.348 127.256 91.7141 126.536C81.3464 125.761 70.8759 126.361 60.3237 126.361C60.3237 138.044 60.3237 149.42 60.3237 161.151C67.2271 161.151 73.8567 161.151 81.4804 161.154Z" fill="black"/>
<path d="M200.594 201.488C212.194 209.505 221.441 207.58 229.471 195.932C230.062 195.074 231.576 194.449 232.682 194.417C237.997 194.261 243.319 194.347 249.047 194.347C246.941 205.112 241.795 213.394 232.093 218.355C217.524 225.804 197.762 223.097 186.126 211.757C177.955 203.795 174.958 193.519 174.732 182.325C174.463 168.954 177.56 156.72 188.327 147.91C200.843 137.668 215.285 136.723 229.722 142.484C242.81 147.708 248.22 158.995 249.021 172.6C249.293 177.221 249.064 181.871 249.064 186.929C230.587 186.929 212.335 186.929 193.9 186.929C193.617 193.124 196.19 197.531 200.594 201.488ZM195.362 167.115C194.891 168.939 194.42 170.762 193.94 172.617C206.9 172.617 219.283 172.617 231.679 172.617C231.125 164.1 227.001 158.543 219.796 156.316C210.345 153.395 201.012 157.325 195.362 167.115Z" fill="black"/>
<path d="M310.868 168.871C301.388 180.849 292.115 192.539 282.23 205.002C295.637 205.002 308.165 205.002 320.986 205.002C320.986 210.467 320.986 215.396 320.986 220.668C300.63 220.668 280.077 220.668 259.267 220.668C258.506 213.231 258.927 206.626 264.576 200.218C275.681 187.621 285.77 174.127 296.265 160.994C297.261 159.748 298.159 158.423 299.528 156.554C286.418 156.554 274.002 156.554 261.292 156.554C261.292 151.255 261.292 146.332 261.292 141.078C281.238 141.078 301.257 141.078 321.193 141.078C323.087 150.14 321.405 157.954 314.507 164.301C313.177 165.525 312.211 167.146 310.868 168.871Z" fill="black"/>
<path d="M140.977 169C140.977 159.38 140.977 150.259 140.977 140.975C147.301 140.975 153.208 140.975 159.351 140.975C159.351 167.619 159.351 194.033 159.351 220.729C153.332 220.729 147.43 220.729 140.977 220.729C140.977 203.674 140.977 186.587 140.977 169Z" fill="black"/>
<path d="M139.22 115.098C139.22 112.813 139.22 111.014 139.22 108.955C146.565 108.955 153.505 108.955 160.775 108.955C160.775 115.701 160.775 122.594 160.775 129.734C153.825 129.734 146.886 129.734 139.22 129.734C139.22 125.09 139.22 120.337 139.22 115.098Z" fill="black"/>
</g>
<defs>
<clipPath id="clip0_364_2389">
<rect width="360" height="360" fill="white"/>
</clipPath>
</defs>
</svg>
